# xmcd
#
# Track frame offsets:
#	150
#	13062
#	30293
#	39521
#	55322
#	67535
#	79125
#	91329
#	104362
#	117407
#	132586
#	145962
#
# Disc length: 2099 seconds
#
# Revision: 1
# Processed by: cddbd v1.5.2PL0 Copyright (c) Steve Scherf et al.
# Submitted via: audiograbber 1.83.01
#
DISCID=9a08310c
DTITLE=Big Tom and The Travellers - Four Country Roads
DYEAR=2009
DGENRE=
TTITLE0=The Streets Of Dublin City
TTITLE1=Take Me Home
TTITLE2=Lamp Lighting Time In The Valley
TTITLE3=5,000 Miles From Sligo
TTITLE4=Cheatin' Fire
TTITLE5=Old Flames
TTITLE6=Dark Hollow
TTITLE7=Girl With The Lovely Brown Eyes
TTITLE8=Four Country Roads
TTITLE9=My Rose Of The Mountain
TTITLE10=I'd Rather Die Young
TTITLE11=Put Me Down Softly
EXTD=
EXTT0=
EXTT1=
EXTT2=
EXTT3=
EXTT4=
EXTT5=
EXTT6=
EXTT7=
EXTT8=
EXTT9=
EXTT10=
EXTT11=
PLAYORDER=
